<svg width="191" height="39" viewBox="0 0 191 39" fill="none" xmlns="http://www.w3.org/2000/svg">
<path d="M148.679 1.77271H138.129L180.43 38.9805H190.98L148.679 1.77271ZM160.902 28.2524L148.699 38.9805H138.149L150.332 28.2524H160.902ZM178.798 12.5009L191 1.77271H180.45L168.247 12.5009H178.798ZM26.4354 1.77271L22.1158 7.82798L44.152 38.9805H52.8709L26.4354 1.77271ZM15.2481 17.5242H23.8874L8.71892 38.9805H0L15.2481 17.5242ZM105.981 1.77271L101.661 7.82798L123.697 38.9805H132.416L105.981 1.77271ZM94.7933 17.5242H103.433L88.2641 38.9805H79.5452L94.7933 17.5242ZM70.1295 1.77271L70.1495 24.553C70.1295 28.2524 68.3579 32.8668 62.4059 33.2562H60.2362V38.9805L63.3614 39C66.9627 38.9219 70.3936 37.4847 72.9363 34.9891C75.6249 32.0124 77.0677 28.154 76.9773 24.1831V1.77271H70.1295Z" fill="#121212"/>
</svg>
