<svg width="252" height="37" viewBox="0 0 252 37" fill="none" xmlns="http://www.w3.org/2000/svg">
<g clip-path="url(#clip0_111_986)">
<path d="M239.947 20.7598L247.373 31.5972L241.974 35.7869L234.548 24.9496L227.143 35.7869L221.746 31.5972L229.171 20.7598L217.117 16.6637L219.233 9.80543L231.176 13.9952V0.606567H237.919V13.9952L249.862 9.80543L252 16.6637L239.947 20.7598Z" fill="#121212"/>
<path d="M22.8438 20.7598L30.2747 31.5972L24.8724 35.7869L17.4416 24.9496L10.0328 35.7869L4.6305 31.5972L12.0393 20.7598L0 16.6637L2.1168 9.80543L14.0679 13.9952V0.606567H20.8152V13.9952L32.7664 9.80543L34.8831 16.6637L22.8438 20.7598Z" fill="#121212"/>
<path d="M45.3531 24.9443C45.7764 29.4349 50.1423 30.4354 52.7708 30.4354C55.3546 30.4354 59.9433 29.877 59.9433 24.9443C59.9433 15.2417 39.9847 24.5952 39.9847 10.0531C39.9847 3.91052 45.4422 -0.0914804 52.6149 0.00158929C59.1638 0.094659 64.3762 3.60803 65.1558 8.79668L58.8296 9.65757C58.295 5.95805 54.9092 5.26003 52.6149 5.26003C50.2313 5.26003 46.1996 5.5625 46.1996 10.0531C46.1996 18.2897 66.1582 9.40162 66.1582 24.9443C66.1582 29.5512 63.0397 35.7869 52.7708 35.7869C43.0142 35.7869 39.517 30.1795 39.0938 25.7819L45.3531 24.9443Z" fill="#121212"/>
<path d="M88.8678 0.606567H95.0255V35.7869H88.8678V21.0739H74.7423V35.7869H68.5625V0.606567H74.7423V15.343H88.8678V0.606567Z" fill="#121212"/>
<path d="M122.092 6.38418H104.228V15.343H119.656V21.0739H104.228V30.0092H122.092V35.7869H98.0352V0.606567H122.092V6.38418Z" fill="#121212"/>
<path d="M150.959 35.7869H144.211L138.657 24.8865C138.281 24.9334 137.839 24.9334 137.418 24.9334H130.67V35.7869H124.496V0.606567H137.418C145.495 0.606567 150.539 5.2848 150.539 12.77C150.539 17.7991 148.26 21.565 144.322 23.4831L150.959 35.7869ZM130.648 6.24384V19.3195H137.396C141.49 19.3195 143.901 17.1675 143.901 12.7934C143.901 8.41921 141.467 6.26722 137.396 6.26722H130.648V6.24384Z" fill="#121212"/>
<path d="M159.979 0.606567H153.965V35.7869H159.979V0.606567Z" fill="#121212"/>
<path d="M187.046 6.38418H169.198V15.343H184.588V21.0739H169.198V35.7869H162.988V0.606567H187.046V6.38418Z" fill="#121212"/>
<path d="M213.507 6.38418H195.637V15.343H211.049V21.0739H195.637V35.7869H189.449V0.606567H213.507V6.38418Z" fill="#121212"/>
</g>
<defs>
<clipPath id="clip0_111_986">
<rect width="252" height="37" fill="white"/>
</clipPath>
</defs>
</svg>
