<svg width="40" height="41" viewBox="0 0 40 41" fill="none" xmlns="http://www.w3.org/2000/svg">
<path d="M29.4282 9.34027C24.2216 4.21861 15.7799 4.21861 10.5732 9.34027C9.33705 10.548 8.35476 11.9907 7.6841 13.5835C7.01345 15.1763 6.66797 16.887 6.66797 18.6153C6.66797 20.3435 7.01345 22.0543 7.6841 23.6471C8.35476 25.2399 9.33705 26.6825 10.5732 27.8903L19.9999 37.1653L29.4282 27.8903C30.6644 26.6825 31.6467 25.2399 32.3174 23.6471C32.988 22.0543 33.3335 20.3435 33.3335 18.6153C33.3335 16.887 32.988 15.1763 32.3174 13.5835C31.6467 11.9907 30.6644 10.548 29.4282 9.34027ZM19.9999 22.9986C18.8866 22.9986 17.8416 22.5653 17.0532 21.7786C16.2728 20.9965 15.8345 19.9368 15.8345 18.8319C15.8345 17.7271 16.2728 16.6674 17.0532 15.8853C17.8399 15.0986 18.8866 14.6653 19.9999 14.6653C21.1132 14.6653 22.1599 15.0986 22.9466 15.8853C23.727 16.6674 24.1653 17.7271 24.1653 18.8319C24.1653 19.9368 23.727 20.9965 22.9466 21.7786C22.1599 22.5653 21.1132 22.9986 19.9999 22.9986Z" fill="#08203A"/>
</svg>
