<svg width="32" height="32" viewBox="0 0 32 32" fill="none" xmlns="http://www.w3.org/2000/svg">
<path fill-rule="evenodd" clip-rule="evenodd" d="M15.0147 29.5121C15.0147 29.5121 5.33203 21.3574 5.33203 13.3334C5.33203 10.5044 6.45584 7.79133 8.45623 5.79094C10.4566 3.79055 13.1697 2.66675 15.9987 2.66675C18.8277 2.66675 21.5408 3.79055 23.5412 5.79094C25.5416 7.79133 26.6654 10.5044 26.6654 13.3334C26.6654 21.3574 16.9827 29.5121 16.9827 29.5121C16.444 30.0081 15.5574 30.0028 15.0147 29.5121ZM15.9987 18.0001C16.6115 18.0001 17.2184 17.8794 17.7846 17.6449C18.3507 17.4103 18.8652 17.0666 19.2985 16.6332C19.7319 16.1999 20.0756 15.6855 20.3101 15.1193C20.5447 14.5531 20.6654 13.9463 20.6654 13.3334C20.6654 12.7206 20.5447 12.1137 20.3101 11.5476C20.0756 10.9814 19.7319 10.4669 19.2985 10.0336C18.8652 9.60024 18.3507 9.2565 17.7846 9.02198C17.2184 8.78746 16.6115 8.66675 15.9987 8.66675C14.761 8.66675 13.574 9.15841 12.6989 10.0336C11.8237 10.9088 11.332 12.0957 11.332 13.3334C11.332 14.5711 11.8237 15.7581 12.6989 16.6332C13.574 17.5084 14.761 18.0001 15.9987 18.0001Z" fill="#2194EF"/>
</svg>
