<svg width="48" height="49" viewBox="0 0 48 49" fill="none" xmlns="http://www.w3.org/2000/svg">
<path d="M14 16.5C14 13.8478 15.0536 11.3043 16.9289 9.42893C18.8043 7.55357 21.3478 6.5 24 6.5C26.6522 6.5 29.1957 7.55357 31.0711 9.42893C32.9464 11.3043 34 13.8478 34 16.5V22.5C34 25.1522 32.9464 27.6957 31.0711 29.5711C29.1957 31.4464 26.6522 32.5 24 32.5C21.3478 32.5 18.8043 31.4464 16.9289 29.5711C15.0536 27.6957 14 25.1522 14 22.5V16.5Z" stroke="#006BC0" stroke-width="2"/>
<path opacity="0.5" d="M26 16.5H34M26 22.5H34M40 20.5V22.5C40 26.7435 38.3143 30.8131 35.3137 33.8137C32.3131 36.8143 28.2435 38.5 24 38.5M24 38.5C19.7565 38.5 15.6869 36.8143 12.6863 33.8137C9.68571 30.8131 8 26.7435 8 22.5V20.5M24 38.5V44.5" stroke="#006BC0" stroke-width="2" stroke-linecap="round"/>
</svg>
