<svg width="16" height="16" viewBox="0 0 16 16" fill="none" xmlns="http://www.w3.org/2000/svg">
<path d="M8.5 14.6364C9.30584 14.6364 10.1038 14.4776 10.8483 14.1693C11.5928 13.8609 12.2692 13.4089 12.8391 12.8391C13.4089 12.2692 13.8609 11.5928 14.1693 10.8483C14.4776 10.1038 14.6364 9.30584 14.6364 8.5C14.6364 7.69416 14.4776 6.89621 14.1693 6.15172C13.8609 5.40722 13.4089 4.73075 12.8391 4.16094C12.2692 3.59112 11.5928 3.13912 10.8483 2.83074C10.1038 2.52236 9.30584 2.36364 8.5 2.36364C6.87254 2.36364 5.31173 3.01014 4.16094 4.16094C3.01014 5.31173 2.36364 6.87254 2.36364 8.5C2.36364 10.1275 3.01014 11.6883 4.16094 12.8391C5.31173 13.9899 6.87254 14.6364 8.5 14.6364ZM16 8.5C16 12.642 12.642 16 8.5 16C4.35795 16 1 12.642 1 8.5C1 4.35795 4.35795 1 8.5 1C12.642 1 16 4.35795 16 8.5ZM10.5455 11.5095L7.81818 8.78227V4.06818H9.18182V8.21773L11.5095 10.5455L10.5455 11.5095Z" fill="#041324"/>
</svg>
