<svg width="65" height="79" viewBox="0 0 65 79" fill="none" xmlns="http://www.w3.org/2000/svg">
<path d="M24.1003 72.1658C23.7144 71.9737 23.2599 71.9216 22.8282 71.9347C22.0727 72.4098 21.6019 73.0412 21.2421 73.8678C20.9412 74.5576 20.3264 75.0263 19.5971 75.2053C18.8516 75.3875 18.0601 75.2509 17.3962 74.8799C10.6104 71.1049 5.02151 65.9923 1.57464 58.9856C1.228 58.2795 0.927125 57.4268 0.98926 56.6328C1.05466 55.7769 1.5354 55.1423 2.34316 54.8332C2.8991 54.6184 3.4714 54.472 4.03062 54.2702C4.13527 54.2311 4.24319 54.192 4.35111 54.1432C2.3824 52.8936 0.103015 51.0224 0.00163675 48.6889C-0.031066 47.9274 0.430043 47.4231 1.04813 47.0553C1.46672 46.8047 1.98016 46.6095 2.36278 46.3231C2.75194 46.0334 2.92526 45.555 3.20651 45.1678C3.78534 44.3737 4.63235 44.1133 5.57746 44.006L5.60363 44.0027H5.62979C6.50948 43.9702 7.26492 44.2305 7.83395 44.9139C8.00073 45.119 8.13155 45.3338 8.27543 45.5517C8.30487 45.6005 8.39317 45.734 8.44549 45.7828C8.60247 45.7665 8.96547 45.5257 9.06684 45.4508L10.4011 44.5104L10.0773 46.105C9.88769 47.0357 9.44619 47.9111 8.52071 48.2919C8.47493 48.3114 8.42914 48.3277 8.38336 48.344C8.62536 48.4611 8.87063 48.575 9.10936 48.6825C9.92693 49.0534 10.7543 49.4082 11.5719 49.7792C12.8212 50.3454 14.0606 51.4714 14.4824 52.7991C14.9631 54.306 14.2176 55.4645 12.8407 56.0177L12.8309 56.073L12.432 56.1609L12.2978 56.2032L12.2783 56.1935C11.3855 56.3953 10.2344 56.7598 9.73398 57.5798C10.4305 58.5886 11.2024 59.5585 11.997 60.4925C12.9388 61.6022 13.9297 62.6728 14.9533 63.7078C16.1372 64.9053 17.3995 66.0476 18.7011 67.115C19.172 67.5023 19.6495 67.8798 20.14 68.2443C20.2054 68.2931 20.2741 68.3419 20.3395 68.394C20.4114 68.1466 20.4834 67.8993 20.5586 67.652C20.7058 67.1671 20.9412 66.3633 21.3141 65.9597C21.7392 65.286 22.4914 64.8435 23.2468 64.6287C24.1035 64.3846 25.0553 64.3976 25.8891 64.71C26.625 64.9835 27.3869 65.5236 27.9494 66.0704C28.8127 66.9132 29.0155 67.0402 29.0483 68.0392C29.0744 68.7813 28.8879 69.3801 28.7179 70.0862C28.6101 70.5321 28.5479 70.9226 28.5871 71.3456C29.869 71.4791 31.2033 71.4856 32.4788 71.4498H32.4951H32.5148C33.7934 71.4856 35.1244 71.4791 36.4064 71.3456C36.4456 70.9226 36.3835 70.5321 36.2755 70.0862C36.1055 69.3832 35.9191 68.7813 35.9453 68.0392C35.978 67.1248 36.2624 66.8319 37.0441 66.0704C37.6065 65.5236 38.3686 64.9835 39.1043 64.71C39.9415 64.3976 40.8899 64.3846 41.7468 64.6287C42.5022 64.8435 43.2544 65.2829 43.6795 65.9597C44.0523 66.3633 44.2877 67.1638 44.4349 67.652C44.5101 67.8993 44.5788 68.1466 44.654 68.394C44.7227 68.3452 44.7881 68.2931 44.8568 68.2443C45.3473 67.8831 45.8248 67.5023 46.2957 67.115C47.6006 66.0476 48.8595 64.9053 50.0434 63.7078C51.0671 62.6728 52.0579 61.6022 52.9998 60.4925C53.7944 59.5585 54.5662 58.5886 55.2628 57.5798C54.7624 56.7598 53.6113 56.3953 52.7185 56.1935L52.6989 56.2032L52.5648 56.1609L52.1658 56.073L52.156 56.0177C50.7793 55.4645 50.0336 54.306 50.5144 52.7991C50.9362 51.4714 52.1789 50.3422 53.4249 49.7792C54.2425 49.4082 55.0698 49.0567 55.8874 48.6825C56.1262 48.575 56.3714 48.4611 56.6134 48.344C56.5677 48.3277 56.5218 48.3114 56.4761 48.2919C55.5506 47.9144 55.1091 47.0357 54.9194 46.105L54.5957 44.5104L55.9299 45.4508C56.0248 45.5192 56.306 45.708 56.4695 45.7633C56.5153 45.6917 56.5644 45.5875 56.5905 45.5387C56.7083 45.3077 56.8227 45.0863 56.9797 44.8781C57.1825 44.608 57.4179 44.4095 57.6828 44.2663C59.1609 43.9832 60.7307 43.713 61.7903 45.1678C62.0715 45.555 62.2416 46.0302 62.634 46.3231C63.0199 46.6095 63.53 46.8014 63.9519 47.0553C64.57 47.4262 65.0311 47.9274 64.9984 48.6889C64.897 51.0255 62.6176 52.8969 60.649 54.1432C60.7568 54.1888 60.8648 54.2311 60.9694 54.2702C61.5287 54.472 62.1009 54.6184 62.6569 54.8332C63.4647 55.1423 63.9453 55.7769 64.0108 56.6328C64.0729 57.4268 63.772 58.2795 63.4254 58.9856C59.9818 65.9923 54.3896 71.1049 47.6038 74.8799C46.9366 75.2509 46.1485 75.3875 45.4029 75.2053C44.6737 75.0263 44.062 74.5576 43.758 73.8678C43.3949 73.0412 42.924 72.4098 42.1719 71.9347C41.7402 71.9216 41.2889 71.9737 40.903 72.1658C40.8016 73.1063 40.8081 74.0663 41.0044 74.9938C41.4426 77.0863 39.9481 78.1407 38.1102 78.5898C36.3606 79.0194 34.2971 78.9999 32.4951 78.9999C30.6932 78.9999 28.6296 79.0194 26.88 78.5898C25.0422 78.1407 23.5477 77.0863 23.9859 74.9938C24.1918 74.063 24.2017 73.1063 24.1003 72.1658Z" fill="#FFE200"/>
<path d="M32.7232 66.9204C17.7875 62.5021 7.0033 48.5479 7.0033 32.8006L7 0H59L58.9967 32.8006C58.9934 48.3325 48.1499 62.7673 33.2636 66.9238L32.9934 67L32.7232 66.9204Z" fill="#FFED00"/>
<path d="M57.9967 32.8205L58 1H8L8.00329 32.8205C7.99341 48.1357 18.4984 61.7038 33 66C47.4587 61.9558 58.0032 47.9069 57.9967 32.8205Z" fill="#0071BB"/>
<path d="M32.7716 18.0573C32.6296 18.1789 32.4938 18.3135 32.3673 18.4679C32.3148 18.5302 32.2655 18.5959 32.213 18.6648V17.0427L34 17V17.4499C33.7901 17.4959 33.5864 17.5616 33.3889 17.6534C33.176 17.7619 32.9661 17.8932 32.7716 18.0573ZM31.787 18.6682C31.7376 18.5991 31.6852 18.5336 31.6358 18.4712C31.5092 18.3201 31.3735 18.1822 31.2315 18.0606C31.037 17.8965 30.8271 17.7619 30.6111 17.6601C30.4136 17.5681 30.2099 17.4992 30 17.4531V17.0033L31.787 17.046V18.6682ZM30 17.9129V54.0534C30.0092 56.4505 30.2747 59.8196 31.787 61.7438L32.0062 62L32.213 61.7438C33.7253 59.8163 33.9908 56.4505 34 54.0534V17.9129C33.8457 17.9523 33.6945 18.0081 33.5464 18.0771C33.3642 18.1624 33.1914 18.2741 33.0309 18.4088C32.8673 18.5467 32.7161 18.7076 32.5741 18.898C32.4414 19.0754 32.321 19.279 32.213 19.4989V58.8837C32.213 59.0348 31.787 59.0348 31.787 58.8837V19.5022C31.679 19.279 31.5586 19.0786 31.4259 18.9013C31.2839 18.7109 31.1296 18.5467 30.9691 18.412C30.8087 18.2741 30.6358 18.1658 30.4537 18.0771C30.3086 18.0081 30.1543 17.9523 30 17.9129Z" fill="#F4F4F4"/>
<path d="M34 5.5C34 5.29379 33.9585 5.09887 33.8852 4.9209C33.8087 4.73728 33.6939 4.57062 33.5536 4.43221C33.4165 4.29661 33.2508 4.18644 33.0659 4.11017C32.8905 4.03955 32.6992 4 32.4983 4C32.2976 4 32.1062 4.03955 31.9309 4.11017C31.7492 4.18644 31.5834 4.29378 31.4463 4.43221C31.3061 4.57062 31.1912 4.73728 31.1147 4.9209C31.0414 5.09887 31 5.29379 31 5.5C31 5.6356 31.0191 5.76554 31.0541 5.88701C31.0861 5.99717 31.1275 6.10452 31.1817 6.20339H33.8214C33.8756 6.10452 33.9202 5.99717 33.949 5.88701C33.9808 5.76554 34 5.6356 34 5.5ZM33.5249 6.59322H31.4655C31.5994 6.71751 31.7555 6.81921 31.9277 6.88983C32.1031 6.96045 32.2943 7 32.4952 7C32.696 7 32.8905 6.96045 33.0659 6.88983C33.238 6.81921 33.3942 6.71751 33.5249 6.59322Z" fill="#FFE200"/>
<path d="M31.0615 15L31 16H35L34.9385 15H31.0615Z" fill="#FFE200"/>
<path d="M31.0678 13L31 14H35L34.9358 13H31.0678Z" fill="#FFE200"/>
<path d="M31.0635 11L31 12H35L34.9366 11H31.0635Z" fill="#FFE200"/>
<path d="M31.0498 10L31 11H34L33.9532 10H31.0498Z" fill="#FFE200"/>
<path d="M31.043 8L31 9H34L33.9571 8H31.043Z" fill="#FFE200"/>
<path d="M33.3885 7H31.0384L31 8H34L33.9584 7H33.3885Z" fill="#FFE200"/>
<path d="M37.6308 16H27.3693C27.3022 16.5031 27.2249 16.9841 27.151 17.4651L27 18.4639C27.1209 18.339 27.2484 18.2215 27.3726 18.115C27.6009 17.9241 27.8358 17.7625 28.0742 17.634C28.3762 17.4688 28.6851 17.3512 28.9972 17.2815C29.3128 17.2117 29.6283 17.186 29.9371 17.2154C30.2493 17.2411 30.5547 17.3183 30.8468 17.4431C31.1322 17.5679 31.4074 17.7405 31.6626 17.9608C31.8437 18.1187 32.0183 18.3023 32.1761 18.5116C32.2902 18.6622 32.3977 18.8237 32.4984 19C32.599 18.8237 32.7065 18.6622 32.8206 18.5153C32.9817 18.306 33.1529 18.1224 33.3375 17.9645C33.5926 17.7442 33.8645 17.5716 34.1532 17.4504C34.4453 17.3255 34.7507 17.2485 35.0629 17.2228C35.3717 17.197 35.6872 17.2191 36.0028 17.2926C36.315 17.3623 36.6238 17.4798 36.9258 17.6451C37.1642 17.7736 37.3992 17.9351 37.6274 18.1261C37.755 18.2325 37.8791 18.3501 38 18.4749L37.8624 17.5679C37.8221 17.3073 37.7784 17.0428 37.7349 16.7454C37.6978 16.4884 37.6609 16.2461 37.6308 16Z" fill="#FFE200"/>
<path d="M15.2183 26.8258C13.0481 25.1475 14.1467 23.1999 15.6544 23.0121C16.3508 22.9244 17.3886 23.3127 17.3649 24.2175C17.3548 24.6684 16.939 25.0912 16.4522 25.1037C15.5801 25.1288 15.2724 24.3961 15.7762 23.8198C15.1136 24.1393 15.0797 25.3635 16.3576 25.971H17.4799V26.4657H18.156H19.8428C21.0395 26.4657 22.3174 25.542 23.6696 24.4085C25.7384 22.63 26.8101 22.9996 28 23.2751C27.9966 24.1174 27.9899 25.1757 27.9865 26.018C26.3368 25.0097 25.5322 25.3416 24.0786 26.4657C22.8718 27.3017 22.1686 27.9906 19.9747 27.9968L18.156 28C16.9695 28 15.7829 27.9968 14.5963 27.9968C14.7214 27.6336 14.9614 27.1953 15.2183 26.8258Z" fill="#FFE200"/>
<path d="M25 41.6564C24.3305 44.7156 21.6748 47 18.5 47C15.3253 47 12.6696 44.7156 12 41.6564H12.2115L17.7504 30.0163C17.7824 29.9306 18.295 30.1976 18.1893 30.4909L12.8746 41.6564H18.1989V30.5041C18.1989 30.191 18.798 30.1943 18.798 30.5009V41.6564H24.1223L18.8076 30.4909C18.7018 30.1976 19.2144 29.9306 19.2464 30.0163L24.7854 41.6564H25Z" fill="#FFE200"/>
<path d="M18.5 28.6635C18.9624 28.6635 19.333 29.0377 19.333 29.4965C19.333 29.9589 18.9588 30.3294 18.5 30.3294C18.0376 30.3294 17.6671 29.9553 17.6671 29.4965C17.6671 29.0377 18.0376 28.6635 18.5 28.6635ZM18.5 28C17.6705 28 17 28.6706 17 29.5001C17 30.3259 17.6705 31 18.5 31C19.3259 31 20 30.3294 20 29.5001C20 28.6706 19.3295 28 18.5 28Z" fill="#FFE200"/>
<path d="M19 25H18V29H19V25Z" fill="#FFE200"/>
<path d="M50.7825 26.8258C52.953 25.1475 51.8509 23.1999 50.3465 23.0121C49.6501 22.9244 48.6122 23.3127 48.6358 24.2175C48.646 24.6684 49.0618 25.0912 49.5486 25.1037C50.4208 25.1288 50.7285 24.3961 50.2247 23.8198C50.8874 24.1393 50.9212 25.3635 49.6433 25.971H48.5209V26.4657H47.8413H46.1544C44.9576 26.4657 43.6796 25.542 42.3274 24.4085C40.2583 22.63 39.1866 22.9996 38 23.2751C38.0034 24.1174 38.0101 25.1757 38.0135 26.018C39.6633 25.0097 40.468 25.3416 41.9217 26.4657C43.1286 27.3017 43.8318 27.9906 46.0259 27.9968L47.8448 28C49.0313 28 50.218 27.9968 51.4046 27.9968C51.2761 27.6336 51.0396 27.1953 50.7825 26.8258Z" fill="#FFE200"/>
<path d="M40 41.6564C40.6695 44.7156 43.3253 47 46.5 47C49.6747 47 52.3305 44.7156 53 41.6564H52.7885L47.2497 30.0163C47.2176 29.9306 46.7018 30.1976 46.8107 30.4909L52.1254 41.6564H46.8011V30.5041C46.8011 30.191 46.2021 30.1943 46.2021 30.5009V41.6564H40.8777L46.1925 30.4909C46.2982 30.1976 45.7856 29.9306 45.7536 30.0163L40.2146 41.6564H40Z" fill="#FFE200"/>
<path d="M46.5001 28.6635C46.0377 28.6635 45.6671 29.0377 45.6671 29.4965C45.6671 29.9589 46.0411 30.3294 46.5001 30.3294C46.9623 30.3294 47.3329 29.9553 47.3329 29.4965C47.3365 29.0377 46.9623 28.6635 46.5001 28.6635ZM46.5001 28C47.3259 28 48 28.6706 48 29.5001C48 30.3259 47.3294 31 46.5001 31C45.6706 31 45 30.3294 45 29.5001C45.0036 28.6706 45.6742 28 46.5001 28Z" fill="#FFE200"/>
<path d="M47 25H46V29H47V25Z" fill="#FFE200"/>
<path d="M32.9175 41.9635C32.904 41.9569 28.2322 39.8864 26.6548 39.2085L26.6414 39.2019L26.6346 39.1985C24.9932 38.3012 25 36.7094 25 36.6064V20H40.9997V36.6064C41.0031 36.7094 41.0065 38.3012 39.3651 39.1952L39.3583 39.1985L39.3449 39.2051C37.7943 39.8731 33.1158 41.9569 33.1024 41.9601L33.0083 42L32.9175 41.9635Z" fill="#FFE200"/>
<path d="M26.3817 39.295C27.8201 39.9149 31.8443 41.705 32.5066 42C33.1657 41.705 37.1531 39.9282 38.6149 39.295C40.05 38.506 39.9998 37.1204 39.9998 37.1171V37.1105V21H25.0002V37.1105V37.1171C25.0002 37.1204 24.95 38.506 26.3817 39.295Z" fill="#0071BB"/>
<path d="M32.5 31.0652C32.5 31.0652 32.9078 32.544 33.5576 33.5114C33.3156 33.6678 32.5 34.2085 32.5 34.2085C32.5 34.2085 31.6877 33.6645 31.4424 33.5114C32.0922 32.544 32.5 31.0652 32.5 31.0652ZM32.0259 36.3974V38.2475C31.1805 37.4789 31.0777 36.3974 31.0777 36.3974H32.0259ZM30.9252 35.505C30.9252 34.9512 30.9915 34.6449 31.0711 34.3942C31.9994 34.5375 32.0358 35.505 32.0358 35.505H30.9252ZM30.166 34.1662C29.9737 34.7753 29.9737 35.5147 29.9737 35.5147H27.9348V32.8078H28.4321C28.6908 33.9837 29.9737 34.1662 30.166 34.1662ZM27.9348 25.2443C27.9348 25.2443 28.7736 26.2704 29.0156 27.4756C29.1483 28.5864 29.4168 30.7459 29.4168 30.7459C29.4168 30.7459 28.6145 31.0814 28.4321 31.9023H27.9348V25.2443ZM32.974 36.3974H33.9222C33.9222 36.3974 33.8194 37.4756 32.974 38.2475V36.3974ZM34.0714 35.505H32.9607C32.9607 35.505 32.9973 34.5408 33.9256 34.3942C34.005 34.6449 34.0714 34.9479 34.0714 35.505ZM34.8306 34.1662C35.0262 34.1662 36.3059 33.9805 36.5678 32.8078H37.0651V35.5147H35.0262C35.0262 35.5147 35.0262 34.7753 34.8306 34.1662ZM37.0651 25.2443V31.9023H36.5678C36.3854 31.0783 35.5831 30.7459 35.5831 30.7459C35.5831 30.7459 35.8516 28.5864 35.9843 27.4756C36.2263 26.2704 37.0651 25.2443 37.0651 25.2443ZM32.5 22C31.8369 22.7231 31.8269 23.632 31.8269 23.7981C31.8269 24.759 31.953 26.4658 31.953 28.3323C31.953 31.2542 30.5274 33.1987 30.5274 33.1987C30.5274 33.1987 30.5041 33.2476 30.2124 33.2476C29.9207 33.2476 29.2908 33.0131 29.2908 32.3291C29.2908 31.6418 30.0633 31.4528 30.2058 31.4528C30.3516 31.4528 30.4247 31.4756 30.4247 31.4756C30.4247 31.4756 30.2787 30.2215 29.9505 27.3942C29.314 24.3714 27 23.3127 27 23.3127V36.3942H30.0831C30.0831 36.3942 30.3086 38.2378 31.953 39.4137C31.953 39.4137 32.4735 39.8567 32.5 40C32.5232 39.8567 33.047 39.4137 33.047 39.4137C34.6913 38.2378 34.9168 36.3942 34.9168 36.3942H38V23.316C38 23.316 35.6859 24.3714 35.0494 27.3974C34.7212 30.2248 34.5753 31.4789 34.5753 31.4789C34.5753 31.4789 34.6483 31.456 34.7941 31.456C34.94 31.456 35.7092 31.6482 35.7092 32.3322C35.7092 33.0164 35.0792 33.2509 34.7875 33.2509C34.4958 33.2509 34.4726 33.202 34.4726 33.202C34.4726 33.202 33.047 31.2573 33.047 28.3323C33.047 26.4658 33.173 24.759 33.173 23.7981C33.173 23.632 33.163 22.7264 32.5 22Z" fill="#FFE100"/>
<path d="M33.0049 78C29.608 78 24.4077 78.0361 25.0942 74.7434C25.3044 73.7356 25.3307 72.6195 25.1665 71.3687C24.6409 70.9912 23.9444 70.8303 23.087 70.8861C22.1573 71.4311 21.5462 72.1763 21.0929 73.2202C20.6494 74.2313 19.2927 74.576 18.1429 73.9325C10.1895 69.4877 5.37351 64.0152 2.51545 58.1817C1.77628 56.6715 1.71387 55.3585 2.93594 54.8857C4.11859 54.4294 5.24868 54.2915 5.90242 53.5431C2.83738 51.7507 1.08312 49.9255 1.00099 48.0509C0.958284 47.0595 2.30519 46.8199 3.11334 46.2126C4.17115 45.4247 3.71124 44.2658 6.02398 44C4.73291 44.9126 4.89717 46.1305 7.31503 47.6734C8.33343 48.3234 9.93329 48.9636 11.704 49.7711C14.1745 50.8939 15.7447 53.9928 12.7619 54.9579C11.1389 54.1209 9.83803 50.7527 8.17574 51.905C6.05026 53.379 10.5378 59.2552 14.9071 63.6869C17.6599 66.4806 20.4983 68.621 21.1783 69.0051C21.5397 69.2086 22.4201 69.6814 23.0081 69.5959C24.3583 69.3957 23.2611 68.2665 22.8801 67.8594C20.8597 65.7157 23.7046 64.0152 25.9976 64.813C29.355 65.9816 29.2763 67.6362 27.7355 68.5324C26.832 69.0576 24.9004 68.7819 25.3537 70.0884C25.748 71.2177 28.3826 71.8184 33.0015 71.6937C37.6205 71.8217 40.2551 71.221 40.6461 70.0884C41.0994 68.7785 39.1678 69.0543 38.2644 68.5324C36.7236 67.6362 36.6448 65.9816 40.0023 64.813C42.2953 64.0152 45.1402 65.719 43.1198 67.8594C42.7355 68.2665 41.6415 69.3957 42.9917 69.5959C43.5764 69.6846 44.4568 69.2119 44.8215 69.0051C45.5016 68.621 48.3399 66.4806 51.0928 63.6869C55.4621 59.2519 59.9496 53.379 57.8241 51.905C56.1619 50.7527 54.8609 54.1209 53.238 54.9579C50.2552 53.9928 51.8254 50.8939 54.2959 49.7711C56.0665 48.9669 57.6632 48.3267 58.6849 47.6734C61.1027 46.1305 61.2703 44.9126 59.9758 44C62.2919 44.2626 61.832 45.4247 62.8866 46.2126C63.6979 46.8166 65.0449 47.0595 64.9988 48.0509C64.92 49.9222 63.1658 51.7507 60.0975 53.5431C60.7512 54.2915 61.8812 54.4294 63.064 54.8857C64.286 55.3585 64.2236 56.6715 63.4844 58.1817C60.6297 64.0152 55.8103 69.4877 47.857 73.9325C46.7105 74.5728 45.3505 74.2313 44.907 73.2202C44.4536 72.1795 43.8425 71.4311 42.9129 70.8861C42.0521 70.8336 41.359 70.9944 40.8301 71.3687C40.6625 72.6195 40.6921 73.7389 40.9023 74.7434C41.6021 78.0361 36.4017 78 33.0049 78Z" fill="#0071BB"/>
<path d="M29.0034 74H29.8175V76.3134H30.7682V76.9936H29V74H29.0034ZM31.4694 74H33.3471V74.6032H32.2834V75.1422H33.2035V75.7455H32.2834V76.3937H33.3813V76.9969H31.4694V74ZM34.9752 75.4021L34.0723 74.0032H35.006L35.3207 74.5615C35.3411 74.5936 35.3583 74.6321 35.3753 74.6738C35.389 74.7155 35.4061 74.7669 35.4233 74.8278C35.4403 74.8856 35.4506 74.9402 35.4574 74.9818C35.4643 75.0236 35.4677 75.078 35.4677 75.1422C35.4813 75.0171 35.5019 74.9048 35.5293 74.8022C35.5567 74.7027 35.5874 74.6224 35.6216 74.5647L35.9465 74.0064H36.87L35.967 75.4054L37 77H36.056L35.608 76.2011C35.5395 76.0824 35.4882 75.9027 35.4574 75.662C35.4574 75.7711 35.4472 75.8674 35.4233 75.9509C35.3993 76.0375 35.3651 76.1209 35.3207 76.2011L34.8828 77H33.9389L34.9752 75.4021Z" fill="#FFE200"/>
<path d="M4.57785 57.9822L5.39362 57.8357L5.56484 57.7958C5.63869 57.7757 5.70584 57.7558 5.76626 57.7292C5.82669 57.7059 5.9039 57.6659 6.00127 57.616C5.91398 57.6625 5.84012 57.7059 5.7797 57.7491C5.71927 57.7924 5.6622 57.8357 5.60849 57.8789L5.48092 57.9955L4.89678 58.5815L4.57785 57.9822ZM4.42342 60.1529L6.67269 57.7258L6.28326 57L3 57.4927L3.38606 58.2119L3.98699 58.1021L4.46706 59.0009L4.03735 59.4305L4.42342 60.1529ZM7.71675 60.699L8.25054 60.3693L7.27698 58.8179L4.61813 60.4626L5.61184 62.0408L6.14562 61.7111L5.57491 60.8055L6.14897 60.4493L6.62905 61.2117L7.16283 60.8821L6.68276 60.1197L7.16283 59.8233L7.71675 60.699ZM8.93203 62.913C8.89175 63.1361 8.77761 63.3193 8.59297 63.4625C8.40497 63.6023 8.19347 63.6622 7.96518 63.6389C7.7369 63.6156 7.55897 63.519 7.42804 63.3459C7.29376 63.1727 7.24676 62.973 7.28705 62.7467C7.32733 62.5235 7.44147 62.3404 7.62947 62.1972C7.81746 62.0574 8.02561 61.9975 8.2539 62.0208C8.48218 62.044 8.66346 62.1407 8.79439 62.3171C8.92532 62.4903 8.97232 62.69 8.93203 62.913ZM9.74443 63.0462C9.80821 62.6234 9.69747 62.2272 9.41546 61.8543C9.1301 61.4814 8.77425 61.2683 8.34789 61.2117C7.92154 61.1585 7.51868 61.2717 7.14269 61.5547C6.76333 61.8377 6.54176 62.1906 6.47797 62.6134C6.41419 63.0363 6.52162 63.4291 6.80362 63.7953C6.85733 63.8653 6.91104 63.9252 6.9614 63.9751C7.01512 64.0252 7.09233 64.0884 7.1964 64.1682L7.03191 64.9174L7.74362 65.0706L7.80404 64.4379C8.09275 64.458 8.32774 64.4413 8.51575 64.388C8.70375 64.3381 8.89175 64.2416 9.08311 64.0984C9.4591 63.822 9.67732 63.4691 9.74443 63.0462ZM10.8557 66.4889L12.2455 65.247L11.715 64.661L10.3723 65.8596C10.2614 65.9562 10.1776 66.0227 10.1238 66.0561C10.0667 66.0893 9.9895 66.1093 9.89219 66.1126C9.79478 66.116 9.69408 66.0593 9.59003 65.9462C9.5061 65.853 9.46245 65.7564 9.45575 65.6498C9.44903 65.5467 9.46917 65.4668 9.51953 65.4101C9.56988 65.3568 9.61017 65.3103 9.64374 65.2803C9.67732 65.2504 9.71756 65.217 9.75448 65.1804L11.0941 63.9818L10.5602 63.3925L9.17039 64.6344C8.97568 64.8075 8.83804 64.954 8.76753 65.0706C8.69368 65.1871 8.65004 65.3236 8.63661 65.4867C8.62317 65.6498 8.65004 65.813 8.71382 65.9728C8.77761 66.1359 8.88168 66.2924 9.01932 66.4456C9.23753 66.6853 9.47253 66.8352 9.731 66.8951C9.98622 66.955 10.201 66.935 10.3689 66.8418C10.5401 66.7453 10.7012 66.6254 10.8557 66.4889ZM10.9765 68.3234L13.172 66.106L12.6014 65.55L10.4058 67.7674L10.9765 68.3234ZM14.5082 68.2368L14.9782 67.7042L13.3332 66.2791L12.8632 66.8119L13.387 67.2646L11.7956 69.0725L12.3999 69.5953L13.9912 67.7873L14.5082 68.2368ZM15.4851 69.5919L15.1931 70.361L14.6593 69.9481L15.3441 69.4821L15.4817 69.3755C15.5422 69.3289 15.5959 69.279 15.6362 69.2323C15.6799 69.1857 15.737 69.1191 15.804 69.0326C15.7436 69.1092 15.6933 69.179 15.6564 69.2424C15.6161 69.3056 15.5824 69.3689 15.5557 69.4288L15.4851 69.5919ZM15.4113 71.9958L16.4688 68.8727L15.8142 68.3667L13.0176 70.1446L13.6656 70.6474L14.1658 70.3011L14.9749 70.927L14.76 71.493L15.4113 71.9958ZM19 70.9836C18.9497 70.8072 18.8792 70.6506 18.7886 70.5241C18.6979 70.3976 18.5736 70.2811 18.4192 70.1779C18.144 69.9948 17.862 69.9182 17.5733 69.9548C17.2845 69.9915 17.0596 70.1313 16.8952 70.3743C16.7474 70.5907 16.6971 70.7805 16.744 70.9503C16.7911 71.1168 16.8347 71.2334 16.875 71.3032C16.9153 71.3732 16.9959 71.483 17.11 71.6329C17.2241 71.7827 17.2979 71.8859 17.3248 71.9492C17.3551 72.0291 17.3484 72.1023 17.3047 72.1656C17.251 72.2455 17.1771 72.2887 17.0765 72.2955C16.9757 72.3054 16.8817 72.2754 16.7843 72.2122C16.5627 72.0657 16.4285 71.796 16.3814 71.4098L15.794 71.7727C15.8611 72.1922 16.0794 72.5218 16.4419 72.7649C16.7306 72.958 17.0193 73.0312 17.3114 72.988C17.6035 72.9447 17.8384 72.7915 18.0164 72.5285C18.1741 72.2954 18.2178 72.0557 18.1507 71.816C18.1003 71.6728 18.0164 71.523 17.8922 71.3665C17.7714 71.2101 17.6942 71.1135 17.6673 71.0702C17.6404 71.0303 17.6202 70.9836 17.6035 70.927C17.5901 70.8704 17.6035 70.8139 17.6438 70.7506C17.6874 70.6874 17.7479 70.6506 17.8284 70.644C17.909 70.6373 17.9896 70.6607 18.0668 70.7106C18.2212 70.8139 18.3353 71.0036 18.4092 71.2833L19 70.9836Z" fill="#FFED00"/>
<path d="M48.5309 70.33C48.508 70.5351 48.4096 70.6979 48.2293 70.8216L47.9932 70.9843L47.0359 69.6269L47.2458 69.4804C47.4261 69.3567 47.6228 69.3144 47.8326 69.36C48.0424 69.4055 48.2162 69.526 48.3506 69.718C48.4916 69.9231 48.5506 70.125 48.5309 70.33ZM48.1867 68.6535C47.8753 68.5494 47.6097 68.5428 47.3867 68.6373C47.1638 68.7317 46.9769 68.8293 46.8228 68.9368L46 69.5097L47.7539 72L48.6293 71.3912C48.9964 71.1373 49.2096 70.8118 49.2751 70.4179C49.3374 70.024 49.2391 69.6367 48.9703 69.259C48.7604 68.9596 48.4981 68.7577 48.1867 68.6535ZM50.2292 67.1658L49.8489 66.6841L48.4293 67.7844L50.3144 70.1802L51.7602 69.0605L51.3799 68.5786L50.5505 69.2232L50.1439 68.7056L50.839 68.1652L50.4619 67.6835L49.7669 68.2239L49.4259 67.7909L50.2292 67.1658ZM51.911 65.7042L51.5045 65.2453L50.1931 66.3846L52.2061 68.6698L52.7929 68.1587L51.9504 67.2049L52.5832 66.6548L52.1766 66.1958L51.5438 66.7427L51.1799 66.3293L51.911 65.7042ZM53.3962 64.2426L52.9667 63.8064L51.6848 65.0597L53.829 67.2245L55.1371 65.9484L54.7043 65.5122L53.9535 66.2446L53.4913 65.7759L54.1208 65.1607L53.6913 64.7245L53.0618 65.3397L52.6749 64.9491L53.3962 64.2426ZM57.3664 63.4321L55.0486 61.4497L54.5404 62.0356L55.6682 63.0023C55.7108 63.0382 55.7862 63.0902 55.8944 63.1521C56.0026 63.2172 56.1173 63.2823 56.2419 63.3507C56.1436 63.3149 56.0288 63.2759 55.8878 63.227C55.7501 63.1781 55.6583 63.1521 55.619 63.1456L53.7503 62.9471L53.2356 63.5396L55.5534 65.522L56.0648 64.936L54.8977 63.9367C54.8879 63.9269 54.7797 63.865 54.5797 63.7479L54.4158 63.66L54.3306 63.6079C54.3699 63.6242 54.4158 63.6437 54.4616 63.6567C54.5076 63.673 54.5568 63.6892 54.6092 63.7088C54.6617 63.7251 54.724 63.7479 54.7994 63.7706C54.8748 63.7967 54.924 63.8064 54.9502 63.8064L56.8747 64.005L57.3664 63.4321ZM56.6616 59.6983C56.4845 59.7406 56.3304 59.8057 56.2025 59.8903C56.0747 59.975 55.9567 60.0889 55.8518 60.2354C55.6616 60.4991 55.5797 60.7693 55.6059 61.0493C55.6354 61.3292 55.7632 61.5506 55.9993 61.7198C56.2091 61.8695 56.396 61.9249 56.5599 61.8859C56.7239 61.8468 56.8418 61.8077 56.9107 61.7686C56.9795 61.7296 57.0911 61.658 57.2419 61.5506C57.3927 61.4431 57.4975 61.378 57.5598 61.3519C57.6418 61.326 57.7106 61.3357 57.7697 61.378C57.8451 61.4334 57.8877 61.5082 57.891 61.6026C57.8976 61.7003 57.8647 61.7914 57.7991 61.8826C57.6483 62.0909 57.3796 62.2146 56.9959 62.2472L57.3336 62.8267C57.75 62.7746 58.0811 62.576 58.3303 62.2309C58.527 61.9574 58.609 61.6774 58.5762 61.3943C58.5434 61.1111 58.3992 60.8766 58.1434 60.6977C57.9172 60.5382 57.6877 60.4861 57.4484 60.5479C57.3042 60.5902 57.1566 60.6683 56.9959 60.7823C56.8386 60.8962 56.7402 60.9645 56.6976 60.9906C56.6583 61.0166 56.6091 61.0329 56.5533 61.046C56.4976 61.059 56.4419 61.0427 56.3829 61.0004C56.3206 60.9548 56.2878 60.8962 56.2846 60.8181C56.2812 60.7399 56.3042 60.6651 56.36 60.5902C56.4648 60.4437 56.6583 60.3395 56.9336 60.2777L56.6616 59.6983ZM59.6712 60.1312L57.0746 58.5263L56.6616 59.184L59.2581 60.7888L59.6712 60.1312ZM60.14 57.9697C60.0384 58.165 59.8777 58.2887 59.6613 58.3441C59.4482 58.3995 59.2351 58.3701 59.0286 58.2628C58.8187 58.152 58.6778 57.9925 58.6056 57.7875C58.5335 57.5791 58.55 57.3805 58.6548 57.1884C58.7565 56.9997 58.9139 56.8792 59.127 56.8239C59.3401 56.7685 59.5532 56.7946 59.7564 56.902C59.963 57.0127 60.1039 57.1689 60.1793 57.3772C60.2547 57.5824 60.2416 57.7809 60.14 57.9697ZM60.9268 57.1266C60.799 56.7262 60.5301 56.4169 60.1269 56.2054C59.7204 55.9905 59.3171 55.945 58.9106 56.0654C58.504 56.1859 58.1959 56.443 57.9828 56.8369C57.7697 57.2373 57.727 57.6377 57.8549 58.0381C57.9828 58.4384 58.2484 58.7478 58.6548 58.9594C59.0647 59.1742 59.4712 59.223 59.8777 59.1025C60.281 58.9821 60.5925 58.7217 60.8056 58.3213C61.0154 57.9242 61.0547 57.527 60.9268 57.1266Z" fill="#FFE200"/>
</svg>
