<svg width="164" height="40" viewBox="0 0 164 40" fill="none" xmlns="http://www.w3.org/2000/svg">
<g clip-path="url(#clip0_111_1688)">
<mask id="mask0_111_1688" style="mask-type:luminance" maskUnits="userSpaceOnUse" x="0" y="0" width="164" height="40">
<path d="M164 0H0V40H164V0Z" fill="white"/>
</mask>
<g mask="url(#mask0_111_1688)">
<path d="M26.386 14.6788V35.3856H2.6143V11.6137H23.7197V9H0V38H29V14.6788H26.386Z" fill="#ACADC6"/>
<path d="M25.8816 0L23.3687 2.62828H34.3881L4 32.1386V34H5.82479L36.3291 4.45906V15.4692L39 12.6412V0H25.8816Z" fill="#0756B2"/>
<path d="M47 19.6615V8.27192H51.3595C52.1268 8.27192 52.7128 8.30817 53.1176 8.38068C53.6852 8.47392 54.1608 8.6526 54.5445 8.91675C54.9281 9.17573 55.2356 9.54088 55.4668 10.0122C55.7033 10.4835 55.8216 11.0015 55.8216 11.566C55.8216 12.5345 55.5088 13.3555 54.8835 14.0289C54.258 14.697 53.128 15.0311 51.4936 15.0311H48.5294V19.6615H47ZM48.5294 13.687H51.5172C52.5053 13.687 53.2069 13.5057 53.622 13.1431C54.0373 12.7806 54.2448 12.2704 54.2448 11.6127C54.2448 11.1362 54.1213 10.7296 53.8743 10.3929C53.6326 10.051 53.312 9.82572 52.9126 9.71698C52.6551 9.64965 52.1794 9.61598 51.4856 9.61598H48.5294V13.687ZM62.5146 18.6437C61.989 19.084 61.4818 19.3948 60.9931 19.5761C60.5096 19.7573 59.9893 19.8479 59.4321 19.8479C58.5124 19.8479 57.8056 19.6278 57.3115 19.1876C56.8175 18.7422 56.5705 18.175 56.5705 17.4861C56.5705 17.0821 56.6625 16.7144 56.8464 16.3829C57.0356 16.0463 57.28 15.7769 57.5795 15.5749C57.8844 15.3729 58.226 15.2201 58.6044 15.1166C58.8829 15.044 59.3035 14.9741 59.8658 14.9067C61.0115 14.7721 61.855 14.6116 62.3963 14.4251C62.4016 14.2335 62.4043 14.1118 62.4043 14.0599C62.4043 13.4902 62.2702 13.0888 62.0022 12.8557C61.6395 12.5397 61.1009 12.3818 60.3861 12.3818C59.7186 12.3818 59.2246 12.4984 58.904 12.7314C58.5887 12.9593 58.3548 13.3659 58.2023 13.9511L56.8149 13.7647C56.941 13.1794 57.1486 12.7081 57.4376 12.3507C57.7267 11.9882 58.1446 11.711 58.6911 11.5195C59.2377 11.3226 59.871 11.2242 60.591 11.2242C61.3058 11.2242 61.8866 11.3071 62.3333 11.4728C62.78 11.6385 63.1085 11.8483 63.3187 12.1021C63.5289 12.3507 63.6761 12.6666 63.7601 13.0499C63.8075 13.2882 63.8311 13.7181 63.8311 14.3396V16.2043C63.8311 17.5042 63.86 18.3277 63.9179 18.6748C63.9809 19.0167 64.1018 19.3456 64.2805 19.6615H62.7984C62.6513 19.3714 62.5566 19.0322 62.5146 18.6437ZM62.3963 15.5205C61.8813 15.7277 61.1087 15.9038 60.0786 16.0488C59.4953 16.1317 59.0827 16.2249 58.8409 16.3285C58.5991 16.4321 58.4126 16.5849 58.2812 16.7869C58.1498 16.9838 58.0841 17.2039 58.0841 17.4473C58.0841 17.8202 58.226 18.1309 58.5098 18.3796C58.7989 18.6282 59.2193 18.7525 59.7711 18.7525C60.3178 18.7525 60.8039 18.6359 61.2295 18.4029C61.6553 18.1647 61.968 17.8409 62.1677 17.4317C62.3201 17.1158 62.3963 16.6497 62.3963 16.0333V15.5205ZM67.158 11.4107H72.9916V18.5117H73.8982V22H72.7315V19.6615H66.141V22H64.9742V18.5117H65.7231C66.7217 17.1753 67.1999 14.8083 67.158 11.4107ZM68.3404 12.5683C68.2353 15.246 67.8149 17.2272 67.0791 18.5117H71.5806V12.5683H68.3404ZM80.9303 18.6437C80.4047 19.084 79.8976 19.3948 79.4088 19.5761C78.9252 19.7573 78.405 19.8479 77.8479 19.8479C76.9281 19.8479 76.2212 19.6278 75.7272 19.1876C75.2332 18.7422 74.9861 18.175 74.9861 17.4861C74.9861 17.0821 75.0781 16.7144 75.2621 16.3829C75.4513 16.0463 75.6957 15.7769 75.9953 15.5749C76.3001 15.3729 76.6418 15.2201 77.0201 15.1166C77.2987 15.044 77.7191 14.9741 78.2814 14.9067C79.4272 14.7721 80.2707 14.6116 80.812 14.4251C80.8173 14.2335 80.8199 14.1118 80.8199 14.0599C80.8199 13.4902 80.6859 13.0888 80.4179 12.8557C80.0552 12.5397 79.5165 12.3818 78.8017 12.3818C78.1343 12.3818 77.6403 12.4984 77.3197 12.7314C77.0043 12.9593 76.7704 13.3659 76.6181 13.9511L75.2306 13.7647C75.3567 13.1794 75.5643 12.7081 75.8534 12.3507C76.1425 11.9882 76.5602 11.711 77.1068 11.5195C77.6534 11.3226 78.2867 11.2242 79.0068 11.2242C79.7215 11.2242 80.3022 11.3071 80.749 11.4728C81.1957 11.6385 81.5242 11.8483 81.7344 12.1021C81.9446 12.3507 82.0918 12.6666 82.1759 13.0499C82.2231 13.2882 82.2468 13.7181 82.2468 14.3396V16.2043C82.2468 17.5042 82.2757 18.3277 82.3335 18.6748C82.3967 19.0167 82.5175 19.3456 82.6962 19.6615H81.2141C81.0669 19.3714 80.9724 19.0322 80.9303 18.6437ZM80.812 15.5205C80.2969 15.7277 79.5244 15.9038 78.4944 16.0488C77.9109 16.1317 77.4983 16.2249 77.2566 16.3285C77.0149 16.4321 76.8283 16.5849 76.6968 16.7869C76.5655 16.9838 76.4999 17.2039 76.4999 17.4473C76.4999 17.8202 76.6418 18.1309 76.9255 18.3796C77.2145 18.6282 77.635 18.7525 78.1869 18.7525C78.7334 18.7525 79.2196 18.6359 79.6453 18.4029C80.071 18.1647 80.3838 17.8409 80.5834 17.4317C80.7359 17.1158 80.812 16.6497 80.812 16.0333V15.5205ZM95.0811 8L96.3345 8.01553C96.2767 8.56973 96.1506 8.9556 95.9562 9.17314C95.7669 9.39067 95.5199 9.53052 95.2151 9.59267C94.9155 9.65482 94.3242 9.6859 93.4413 9.6859C92.2693 9.6859 91.4704 9.7973 91.0447 10.02C90.619 10.2427 90.3115 10.6001 90.1224 11.0921C89.9384 11.5789 89.8359 12.2083 89.8149 12.9801C90.1723 12.4569 90.5901 12.0658 91.0684 11.8069C91.5466 11.5427 92.0854 11.4107 92.6845 11.4107C93.783 11.4107 94.6922 11.7836 95.4121 12.5294C96.1322 13.27 96.4922 14.2748 96.4922 15.5438C96.4922 16.5072 96.3109 17.2971 95.9482 17.9134C95.5856 18.5298 95.1547 19.0063 94.6554 19.3429C94.1613 19.6796 93.4859 19.8479 92.6293 19.8479C91.636 19.8479 90.8634 19.6253 90.3115 19.1797C89.7597 18.7291 89.3366 18.1543 89.0424 17.455C88.748 16.7558 88.6008 15.5386 88.6008 13.8035C88.6008 11.623 88.974 10.1546 89.7204 9.39844C90.4718 8.64224 91.6255 8.26415 93.1811 8.26415C94.1482 8.26415 94.6974 8.24861 94.8288 8.21753C94.9602 8.18646 95.0443 8.11394 95.0811 8ZM95.0101 15.505C95.0101 14.6452 94.8025 13.9408 94.3873 13.3918C93.9774 12.8428 93.3966 12.5683 92.645 12.5683C91.8619 12.5683 91.2576 12.8583 90.8319 13.4384C90.4062 14.0185 90.1933 14.7929 90.1933 15.7614C90.1933 16.7195 90.4272 17.4525 90.895 17.96C91.3679 18.4676 91.9487 18.7214 92.6372 18.7214C93.3414 18.7214 93.9116 18.4288 94.3479 17.8435C94.7894 17.2531 95.0101 16.4736 95.0101 15.505ZM98.2108 9.88011V8.27192H99.6297V9.88011H98.2108ZM98.2108 19.6615V11.4107H99.6297V19.6615H98.2108ZM103.65 15.9323V14.8369C104.249 14.8317 104.657 14.8083 104.873 14.7669C105.093 14.7255 105.3 14.6012 105.495 14.394C105.69 14.1868 105.786 13.9278 105.786 13.6171C105.786 13.239 105.658 12.9386 105.401 12.7158C105.148 12.488 104.82 12.374 104.415 12.374C103.617 12.374 103.057 12.8376 102.736 13.7647L101.388 13.5472C101.809 11.9985 102.823 11.2242 104.431 11.2242C105.324 11.2242 106.023 11.4651 106.528 11.9467C107.037 12.4284 107.293 13.0033 107.293 13.6714C107.293 14.3448 106.962 14.8809 106.3 15.2797C106.719 15.5024 107.035 15.7873 107.245 16.1343C107.455 16.4761 107.56 16.8827 107.56 17.354C107.56 18.0947 107.287 18.6955 106.741 19.1565C106.194 19.6174 105.429 19.8479 104.447 19.8479C102.539 19.8479 101.433 19.0115 101.128 17.3385L102.46 17.0588C102.58 17.5871 102.825 17.9963 103.193 18.2864C103.566 18.5764 103.991 18.7214 104.47 18.7214C104.948 18.7214 105.345 18.5893 105.661 18.3252C105.981 18.0559 106.141 17.7141 106.141 17.2997C106.141 16.9786 106.042 16.6989 105.842 16.4606C105.642 16.2223 105.429 16.0747 105.204 16.0178C104.977 15.9556 104.567 15.9246 103.974 15.9246C103.926 15.9246 103.818 15.9271 103.65 15.9323ZM109.216 11.4107H110.635V14.8446H114.569V11.4107H115.988V19.6615H114.569V16.0022H110.635V19.6615H109.216V11.4107ZM123.864 17.0044L125.33 17.1831C125.099 18.0274 124.67 18.6826 124.045 19.1487C123.419 19.6149 122.621 19.8479 121.648 19.8479C120.423 19.8479 119.452 19.4776 118.732 18.737C118.017 17.9911 117.659 16.9475 117.659 15.606C117.659 14.2179 118.022 13.1406 118.747 12.374C119.473 11.6075 120.413 11.2242 121.57 11.2242C122.689 11.2242 123.603 11.5997 124.312 12.3507C125.022 13.1018 125.377 14.1583 125.377 15.5205C125.377 15.6034 125.374 15.7277 125.369 15.8934H119.126C119.178 16.7998 119.438 17.4938 119.906 17.9756C120.374 18.4573 120.957 18.6981 121.656 18.6981C122.176 18.6981 122.621 18.5634 122.989 18.2941C123.357 18.0248 123.648 17.5949 123.864 17.0044ZM119.204 14.7436H123.879C123.816 14.0495 123.637 13.529 123.343 13.182C122.891 12.6433 122.305 12.374 121.585 12.374C120.933 12.374 120.384 12.5889 119.938 13.0189C119.496 13.4488 119.252 14.0237 119.204 14.7436ZM132.583 16.6393L133.978 16.8179C133.825 17.7658 133.434 18.509 132.803 19.0477C132.178 19.5812 131.408 19.8479 130.494 19.8479C129.348 19.8479 128.425 19.4802 127.726 18.7447C127.032 18.004 126.686 16.9448 126.686 15.5672C126.686 14.6762 126.835 13.8967 127.135 13.2287C127.435 12.5605 127.889 12.0607 128.499 11.7292C129.113 11.3925 129.782 11.2242 130.502 11.2242C131.411 11.2242 132.154 11.4521 132.732 11.9078C133.311 12.3585 133.681 13.0007 133.844 13.8346L132.465 14.0444C132.332 13.4902 132.099 13.0733 131.763 12.7936C131.431 12.5139 131.03 12.374 130.556 12.374C129.841 12.374 129.261 12.6278 128.814 13.1354C128.368 13.6378 128.144 14.4355 128.144 15.5283C128.144 16.6367 128.36 17.4421 128.79 17.9445C129.222 18.4469 129.784 18.6981 130.478 18.6981C131.035 18.6981 131.5 18.5298 131.873 18.1931C132.246 17.8564 132.483 17.3385 132.583 16.6393ZM134.64 16.2431V14.8369H139V16.2431H134.64Z" fill="#0756B2"/>
<path d="M46 30.3528C46 29.116 46.1773 28.0779 46.5319 27.2385C46.7966 26.6201 47.1566 26.0651 47.6118 25.5738C48.0722 25.0823 48.5751 24.7179 49.1203 24.4804C49.8454 24.1602 50.6818 24 51.6293 24C53.3443 24 54.7151 24.555 55.742 25.6649C56.7742 26.7747 57.2902 28.3181 57.2902 30.2948C57.2902 32.2552 56.7795 33.7902 55.7579 34.9001C54.7364 36.0044 53.3707 36.5567 51.661 36.5567C49.9302 36.5567 48.554 36.0072 47.5323 34.9084C46.5108 33.804 46 32.2855 46 30.3528ZM48.4216 30.2701C48.4216 31.6449 48.7259 32.6885 49.3347 33.4009C49.9434 34.1077 50.7162 34.4611 51.6531 34.4611C52.59 34.4611 53.3575 34.1105 53.9556 33.4091C54.559 32.7023 54.8608 31.6449 54.8608 30.2369C54.8608 28.8454 54.5669 27.8073 53.9794 27.1226C53.3971 26.4379 52.6218 26.0955 51.6531 26.0955C50.6844 26.0955 49.9037 26.4434 49.3108 27.1392C48.718 27.8294 48.4216 28.873 48.4216 30.2701ZM59.1005 36.3496V24.2071H62.6178L64.7298 32.4898L66.8179 24.2071H70.3432V36.3496H68.1598V26.7913L65.8493 36.3496H63.5865L61.284 26.7913V36.3496H59.1005ZM72.7251 24.2071H81.4271V26.2446H75.0753V29.0607H78.2194C79.0875 29.0607 79.8073 29.1712 80.379 29.392C80.9507 29.6129 81.4376 30.0215 81.8399 30.6179C82.2476 31.2143 82.4513 31.9128 82.4513 32.7134C82.4513 33.5362 82.2476 34.2403 81.8399 34.8256C81.4324 35.4108 80.9666 35.8112 80.4425 36.0265C79.9238 36.2419 79.1828 36.3496 78.2194 36.3496H72.7251V24.2071ZM75.0753 34.312H77.3619C78.0923 34.312 78.6058 34.2761 78.9023 34.2043C79.1986 34.127 79.4554 33.9559 79.6724 33.6908C79.8947 33.4257 80.0058 33.1 80.0058 32.7134C80.0058 32.1502 79.8127 31.7416 79.4263 31.4876C79.0452 31.228 78.3915 31.0983 77.4652 31.0983H75.0753V34.312ZM82.7688 24.2071H85.3969L88.1124 30.5103L90.4308 24.2071H92.8841L88.9539 33.434C88.5252 34.4334 88.0885 35.1955 87.6439 35.7201C87.1993 36.2392 86.625 36.4987 85.9209 36.4987C85.2276 36.4987 84.6851 36.4517 84.2934 36.3578V34.5356C84.6268 34.5577 84.9285 34.5687 85.1984 34.5687C85.7437 34.5687 86.1327 34.4666 86.3656 34.2623C86.6038 34.0525 86.8314 33.6052 87.0484 32.9205L82.7688 24.2071ZM94.1783 24.2071H102.222V34.312H103.245V39H101.292V36.3496H93.9639V39H92.0108V34.312H92.9953C93.4769 33.2739 93.7945 32.0701 93.948 30.7007C94.1016 29.3258 94.1783 27.5892 94.1783 25.4909V24.2071ZM96.4173 26.2446C96.4173 29.9332 96.0971 32.6223 95.4566 34.312H99.8791V26.2446H96.4173ZM112.281 31.8852L114.559 32.6389C114.21 33.9641 113.628 34.9498 112.813 35.5959C112.003 36.2363 110.973 36.5567 109.724 36.5567C108.179 36.5567 106.909 36.0072 105.913 34.9084C104.918 33.804 104.421 32.2965 104.421 30.3859C104.421 28.365 104.921 26.7968 105.921 25.6814C106.922 24.5604 108.237 24 109.867 24C111.291 24 112.447 24.439 113.337 25.317C113.866 25.836 114.263 26.5815 114.527 27.5533L112.202 28.1331C112.064 27.5036 111.775 27.0067 111.337 26.6422C110.902 26.2777 110.373 26.0955 109.748 26.0955C108.886 26.0955 108.184 26.4186 107.644 27.0646C107.109 27.7107 106.842 28.757 106.842 30.2037C106.842 31.7388 107.107 32.8321 107.636 33.4837C108.166 34.1353 108.854 34.4611 109.7 34.4611C110.325 34.4611 110.862 34.2541 111.312 33.8399C111.762 33.4258 112.085 32.7742 112.281 31.8852ZM116.33 36.3496V24.2071H119.847L121.96 32.4898L124.048 24.2071H127.573V36.3496H125.39V26.7913L123.079 36.3496H120.816L118.513 26.7913V36.3496H116.33ZM129.907 36.3496V24.2071H138.538V26.2612H132.257V28.9531H138.101V30.9989H132.257V34.3037H138.76V36.3496H129.907ZM140.76 36.3496V24.2071H143.111V28.9862H147.716V24.2071H150.066V36.3496H147.716V31.0403H143.111V36.3496H140.76ZM163 36.3496H160.443L159.427 33.5915H154.775L153.814 36.3496H151.32L155.854 24.2071H158.339L163 36.3496ZM158.672 31.5456L157.069 27.0398L155.497 31.5456H158.672Z" fill="#0756B2"/>
</g>
</g>
<defs>
<clipPath id="clip0_111_1688">
<rect width="164" height="40" fill="white"/>
</clipPath>
</defs>
</svg>
